<svg width="703" height="872" viewBox="0 0 703 872" fill="none" xmlns="http://www.w3.org/2000/svg">
<path d="M636.253 862.012C589.228 845.973 502.891 786.588 502.891 770.281C502.891 767.493 492.171 747.37 479.068 725.564C464.43 701.203 447.765 657.032 435.846 611.002C418.355 543.454 416.517 525.204 417.157 425.418C417.769 329.876 416.391 314.749 407.071 314.749C389.372 314.749 269.71 342.067 256.589 349.103C249.913 352.683 239.876 355.611 234.284 355.611C213.338 355.611 216.837 368.841 240.702 379.874L265.426 391.306L261.801 429.644C259.808 450.731 256.369 476.411 254.159 486.712C249.405 508.87 248.165 508.707 311.558 494.263C366.467 481.753 384.783 484.254 379.603 503.554C376.97 513.363 364.611 517.922 323.285 524.328C255.518 534.834 248.649 540.361 254.021 580.059C256.324 597.078 260.145 651.516 262.511 701.034L266.813 791.067L248.266 799.301C210.524 816.056 181.324 791.303 161.78 725.988C150.95 689.796 151.013 689.321 166.624 689.321C183.874 689.321 188.129 677.104 193.202 613.015L197.404 559.924L166.66 560.442C149.752 560.727 125.098 564.769 111.874 569.424C86.344 578.411 74.7389 593.976 93.5676 593.976C126.362 593.976 127.302 710.558 94.6782 731.782C78.6221 742.227 55.6074 736.627 44.0662 719.465C32.8277 702.754 33.0242 700.452 48.2814 670.09C82.6049 601.786 80.0542 583.211 36.7095 585.817C-17.3378 589.066 -10.6032 575.871 49.6486 560.464C135.385 538.542 131.697 540.829 110.34 522.827C91.3588 506.827 69.5121 471.7 69.5121 457.18C69.5121 451.534 78.9271 450.363 100.814 453.286C144.883 459.171 159.998 470.326 165 500.654C168.117 519.558 172.3 525.946 180.551 524.398C194.087 521.858 196.676 490.414 187.429 440.861C177.63 388.349 171.302 385.057 106.303 398.666C41.7376 412.184 39.6279 412.314 42.9619 402.569C45.9143 393.939 57.8258 389.408 219.797 335.295C285.153 313.46 360.233 287.646 386.641 277.93C436.915 259.434 493.467 254.873 517.45 267.378C530.781 274.329 530.717 274.985 514.631 296.322C505.579 308.33 492.941 329.348 486.548 343.028C474.642 368.503 460.054 450.207 465.738 459.576C467.477 462.444 470.588 483.897 472.649 507.249C477.083 557.476 516.3 677.922 540.26 714.902C557.18 741.018 603.248 784.667 613.89 784.667C625.557 784.667 656.67 737.68 656.67 720.06C656.67 698.266 672.128 711.314 688.166 746.646C706.156 786.281 707.939 830.403 692.66 857.879C682.721 875.752 677.631 876.125 636.253 862.012ZM369.335 702.325C346.671 690.345 275.875 624.235 275.61 614.803C275.551 612.712 272.877 606.967 269.667 602.036C260.199 587.489 268.497 585.808 311.73 593.518C366.013 603.199 405.492 630.305 418.597 666.893C426.936 690.172 427.089 696.864 419.489 705.786C407.918 719.37 400.632 718.867 369.335 702.325ZM284.255 428.823C286.297 412.904 289.993 397.672 292.468 394.975C296.743 390.316 367.672 405.477 374.999 412.616C382.628 420.049 368.79 429.09 337.059 437.406C318.699 442.218 300.688 448.768 297.036 451.961C283.955 463.399 280.599 457.322 284.255 428.823ZM146.402 260.697C152.169 257.416 183.624 246.979 216.302 237.502C248.98 228.026 294.589 212.488 317.656 202.973C360.506 185.299 386.456 182.072 425.127 189.608C457.293 195.876 451.755 210.362 413.769 219.319C395.507 223.626 355.402 232.917 324.646 239.967C293.89 247.017 257.738 256.001 244.308 259.931C214.248 268.727 131.144 269.377 146.402 260.697ZM106.21 205.57C86.2928 197.77 86.4556 195.921 109.705 165.873C154.383 108.13 183.66 47.1253 179.607 20.2175L176.562 0L209.843 4.30152C228.147 6.66732 253.059 11.9774 265.202 16.1016C284.411 22.6259 286.702 25.9235 282.834 41.4796C277.447 63.1445 236.513 130.868 228.805 130.868C225.773 130.868 223.292 135.524 223.292 141.214C223.292 155.398 245.578 149.393 328.966 112.743C399.578 81.7092 440.563 75.5537 464.246 92.4261C487.559 109.035 472.833 124.058 433.238 124.058C413.91 124.058 379.998 129.916 357.877 137.077C335.756 144.238 291.251 153.875 258.977 158.494C223.762 163.534 195.718 171.354 188.846 178.05C178.71 187.925 130.766 213.293 124.376 212.161C123.034 211.924 114.86 208.958 106.21 205.57Z" fill="white" fill-opacity="0.08"/>
</svg>
